<svg width="48" height="48" version="1.1" viewBox="0 0 48 48" xmlns="http://www.w3.org/2000/svg">
 <g transform="matrix(1.136 0 0 1.136 -17.126 -11.697)">
  <circle cx="36.203" cy="31.424" r="20.577" style="fill-rule:evenodd;fill:#fff;stroke-width:.72784px;stroke:#fff"/>
  <g transform="matrix(.72784 0 0 .72784 79.731 17.715)">
   <path d="m-62.868 45.261c-1.1344-0.12353-1.6945-0.21102-2.1226-0.33158-0.17311-0.04874-0.18344-0.63253-0.18344-10.369v-10.318h-20.627l-0.05638-0.23585c-0.58866-2.4624-0.58866-7.6529 0-10.115l0.05638-0.23585h20.627v-20.646l0.28826-0.06415c0.15854-0.035283 0.3625-0.083893 0.45323-0.10802 0.5275-0.14028 3.3057-0.35368 4.6044-0.35368 1.2987 0 4.0769 0.2134 4.6044 0.35368 0.09074 0.024129 0.29469 0.072739 0.45323 0.10802l0.28826 0.06415v20.646h20.627l0.05638 0.23585c0.58866 2.4624 0.58866 7.6529 0 10.115l-0.05638 0.23585h-20.627v10.318c0 9.7377-0.01031 10.321-0.18344 10.368-1.6419 0.44513-5.6723 0.609-8.2023 0.3335zm-6.8134-1.7239c-2.1999-0.85699-4.951-2.4699-6.8658-4.0253-1.3789-1.1201-3.2708-3.0221-3.9378-3.9588l-0.213-0.29913 5.9915-2.9961c3.2953-1.6479 6.0102-2.9774 6.0331-2.9545 0.02288 0.02288 0.02949 3.3221 0.01468 7.3317l-0.02692 7.2901zm18.658-6.9308c0-4.033 0.02375-7.3328 0.05277-7.3328s2.7436 1.3456 6.0324 2.9902l5.9796 2.9902-0.213 0.29913c-0.66695 0.93665-2.5589 2.8387-3.9378 3.9588-1.9132 1.5542-5.1133 3.4055-7.2065 4.1692l-0.70754 0.25814zm-31.067-3.2706c-0.50366-0.78822-1.428-2.4138-1.428-2.5114 0-0.04547 1.3676-0.76678 3.0391-1.6029l3.0391-1.5203h3.8791c2.1335 0 3.8791 0.03557 3.8791 0.07904s-2.7127 1.4352-6.0283 3.0926l-6.0283 3.0136zm42.835-4.0566c-1.57-0.79301-2.8239-1.4725-2.7865-1.5099 0.03744-0.03744 1.664-0.06807 3.6145-0.06807 2.8872 0 3.5465 0.026 3.5465 0.1399 0 0.1466-0.6726 1.8312-1.0009 2.5068-0.10625 0.21868-0.26377 0.38865-0.35502 0.38309-0.09021-0.0055-1.4486-0.65882-3.0186-1.4518zm-45.52-19.223c0-0.1466 0.6726-1.8312 1.0009-2.5068 0.10504-0.21619 0.2465-0.39308 0.31434-0.39308 0.21512 0 5.9195 2.898 5.847 2.9705-0.03812 0.03812-1.6652 0.06931-3.6158 0.06931-2.8872 0-3.5465-0.026-3.5465-0.1399zm34.801 0.06086c0-0.04347 2.7127-1.4352 6.0283-3.0926l6.0283-3.0136 0.3519 0.55071c0.50366 0.78822 1.428 2.4138 1.428 2.5114 0 0.045466-1.3676 0.76678-3.0391 1.6029l-3.0391 1.5203h-3.8791c-2.1335 0-3.8791-0.03557-3.8791-0.07904zm-24.769-4.4892-5.9538-2.9844 0.213-0.29913c0.35014-0.49173 1.4469-1.6881 2.2997-2.5085 2.3135-2.2257 5.3503-4.1954 8.3571-5.4207 0.51309-0.20909 0.99185-0.40459 1.0639-0.43446 0.10409-0.043137 0.13103 1.4564 0.13103 7.2944 0 4.0418-0.03538 7.3461-0.07862 7.343-0.04324-0.00316-2.7578-1.3487-6.0324-2.9902zm23.721-4.3528c0-5.838 0.02694-7.3375 0.13103-7.2944 0.07206 0.029864 0.55082 0.22537 1.0639 0.43446 3.0069 1.2253 6.0436 3.1951 8.3571 5.4207 0.85278 0.82039 1.9496 2.0167 2.2997 2.5085l0.213 0.29913-5.9796 2.9902c-3.2888 1.6446-6.0034 2.9902-6.0324 2.9902-0.02902 0-0.05277-3.3069-0.05277-7.3487z" style="fill:#e7929c;stroke-width:.10482"/>
   <path d="m-61.61 45.35c-0.81384-0.07678-2.9753-0.35962-3.2226-0.42169l-0.23652-0.05936v-20.627h-20.714l-0.18162-1.1391c-0.42821-2.6857-0.42813-5.6236 2.09e-4 -8.3102l0.18141-1.1377h20.714v-20.627l0.23652-0.059362c2.203-0.55292 7.8061-0.55292 10.009 0l0.23652 0.059362v20.627h20.714l0.18162 1.1391c0.42821 2.6857 0.42813 5.6236-2.09e-4 8.3102l-0.18141 1.1377h-20.714v20.633l-0.28826 0.0629c-1.3721 0.29938-5.3497 0.54277-6.7348 0.41209zm-8.0712-1.8131c-2.1999-0.85699-4.951-2.4699-6.8658-4.0253-1.3789-1.1201-3.2708-3.0221-3.9378-3.9588l-0.213-0.29913 5.9915-2.9961c3.2953-1.6479 6.0102-2.9774 6.0331-2.9545 0.02288 0.02288 0.02949 3.3221 0.01468 7.3317l-0.02692 7.2901zm18.658-6.9308c0-4.033 0.02375-7.3328 0.05277-7.3328s2.7436 1.3456 6.0324 2.9902l5.9796 2.9902-0.213 0.29913c-0.66695 0.93665-2.5589 2.8387-3.9378 3.9588-1.9132 1.5542-5.1133 3.4055-7.2065 4.1692l-0.70754 0.25814zm-31.187-3.5524c-0.25862-0.39979-0.65699-1.0732-0.88527-1.4964l-0.41504-0.76946 5.9686-2.9821 7.8082 0.0114-5.9224 2.9759c-3.2573 1.6368-5.9587 2.9785-6.0031 2.9817-0.0444 0.0032-0.29233-0.32136-0.55096-0.72115zm43.076-3.7739-2.9267-1.4671 7.171-7e-3 -0.1403 0.39308c-0.23124 0.64785-0.98678 2.3575-1.0854 2.4562-0.05256 0.05256-1.3434-0.53554-3.0185-1.3753zm-45.492-19.582c0.2332-0.65334 0.98716-2.3579 1.0872-2.4579 0.0549-0.054899 1.3027 0.51237 3.0185 1.3723l2.925 1.4659-7.171 0.0128 0.1403-0.39308zm40.657-2.6029c3.2747-1.6415 5.9969-2.958 6.0493-2.9256 0.12329 0.0762 1.152 1.7391 1.4969 2.4196l0.26612 0.52516-5.9581 2.9769-7.8082-0.0114zm-30.776-1.4674-5.9538-2.9844 0.213-0.29913c0.35014-0.49173 1.4469-1.6881 2.2997-2.5085 2.3135-2.2257 5.3503-4.1954 8.3571-5.4207 0.51309-0.20909 0.99185-0.40459 1.0639-0.43446 0.10409-0.043137 0.13103 1.4564 0.13103 7.2944 0 4.0418-0.03538 7.3461-0.07862 7.343-0.04324-0.00316-2.7578-1.3487-6.0324-2.9902zm23.721-4.3528c0-5.838 0.02694-7.3375 0.13103-7.2944 0.07206 0.029864 0.55082 0.22537 1.0639 0.43446 3.0069 1.2253 6.0436 3.1951 8.3571 5.4207 0.85278 0.82039 1.9496 2.0167 2.2997 2.5085l0.213 0.29913-5.9796 2.9902c-3.2888 1.6446-6.0034 2.9902-6.0324 2.9902-0.02902 0-0.05277-3.3069-0.05277-7.3487z" style="fill:#9ba9cb;stroke-width:.10482"/>
   <path d="m-61.61 45.35c-0.81384-0.07678-2.9753-0.35962-3.2226-0.42169l-0.23652-0.05936v-20.627h-20.714l-0.18162-1.1391c-0.42821-2.6857-0.42813-5.6236 2.09e-4 -8.3102l0.18141-1.1377h20.714v-20.627l0.23652-0.059362c2.203-0.55292 7.8061-0.55292 10.009 0l0.23652 0.059362v20.627h20.714l0.18162 1.1391c0.42821 2.6857 0.42813 5.6236-2.09e-4 8.3102l-0.18141 1.1377h-20.714v20.633l-0.28826 0.0629c-1.3721 0.29938-5.3497 0.54277-6.7348 0.41209zm-8.3333-1.9651c-3.1055-1.3139-5.7879-3.0697-8.2496-5.3998-0.84921-0.80384-2.3898-2.5257-2.3898-2.671 0-0.07733 11.69-5.9359 11.844-5.9359 0.06936 0 0.10519 2.4639 0.10519 7.2327 0 5.7203-0.0274 7.2311-0.13103 7.2251-0.07206-0.0041-0.60272-0.20709-1.1792-0.451zm18.92-6.8267v-7.2853l5.9748 2.9878c3.2861 1.6433 5.9748 3.0173 5.9748 3.0534 0 0.1453-1.5406 1.8672-2.3898 2.671-1.9225 1.8198-4.0669 3.3483-6.2726 4.4712-1.1436 0.58215-3.0023 1.3872-3.2028 1.3872-0.04645 0-0.08445-3.2784-0.08445-7.2853zm-31.187-3.5045c-0.25862-0.39979-0.65699-1.0732-0.88527-1.4964l-0.41504-0.76946 5.9686-2.9821 7.8082 0.0114-5.9224 2.9759c-3.2573 1.6368-5.9587 2.9785-6.0031 2.9817-0.0444 0.0032-0.29233-0.32136-0.55096-0.72115zm43.076-3.7739-2.9267-1.4671 7.171-7e-3 -0.1403 0.39308c-0.23124 0.64785-0.98678 2.3575-1.0854 2.4562-0.05256 0.05256-1.3434-0.53554-3.0185-1.3753zm-45.492-19.582c0.2332-0.65334 0.98716-2.3579 1.0872-2.4579 0.0549-0.054899 1.3027 0.51237 3.0185 1.3723l2.925 1.4659-7.171 0.0128 0.1403-0.39308zm40.657-2.6029c3.2747-1.6415 5.9969-2.958 6.0493-2.9256 0.12329 0.0762 1.152 1.7391 1.4969 2.4196l0.26612 0.52516-5.9581 2.9769-7.8082-0.0114zm-7.0546-5.7564c0-4.0069 0.038-7.2853 0.08445-7.2853 0.20049 0 2.0592 0.80505 3.2028 1.3872 2.2057 1.1228 4.35 2.6513 6.2726 4.4712 0.84922 0.80385 2.3898 2.5257 2.3898 2.671 0 0.036073-2.6887 1.4101-5.9748 3.0534l-5.9748 2.9878zm-23.716 4.2392c-3.2141-1.6112-5.8438-2.959-5.8438-2.995 0-0.1453 1.5406-1.8672 2.3898-2.671 1.9225-1.8198 4.0669-3.3483 6.2726-4.4712 1.1436-0.58215 3.0023-1.3872 3.2028-1.3872 0.04645 0 0.08445 3.2547 0.08445 7.2327 0 5.7193-0.02742 7.2315-0.13103 7.2269-0.07206-0.00316-2.7607-1.324-5.9748-2.9352z" style="fill:#db5768;stroke-width:.10482"/>
   <path d="m-61.608 45.305c-0.54617-0.04458-1.5485-0.16325-2.2275-0.26371l-1.2344-0.18266v-20.617h-20.635l-0.1094-0.55031c-0.34581-1.7395-0.37716-2.1337-0.37716-4.7432s0.03135-3.0037 0.37716-4.7432l0.1094-0.55031h20.635v-20.615l1.1792-0.17615c0.64858-0.096882 1.8278-0.22676 2.6205-0.28862 1.5739-0.12282 3.3844-0.027869 5.5031 0.28862l1.1792 0.17615v20.615h20.635l0.1094 0.55031c0.34581 1.7395 0.37716 2.1337 0.37716 4.7432s-0.03135 3.0037-0.37716 4.7432l-0.1094 0.55031h-20.635v20.615l-1.1792 0.1755c-2.3775 0.35385-3.949 0.42724-5.841 0.27281zm-8.3361-1.9199c-3.1055-1.3139-5.7879-3.0697-8.2496-5.3998-0.84921-0.80384-2.3898-2.5257-2.3898-2.671 0-0.07733 11.69-5.9359 11.844-5.9359 0.06936 0 0.10519 2.4639 0.10519 7.2327 0 5.7203-0.0274 7.2311-0.13103 7.2251-0.07206-0.0041-0.60272-0.20709-1.1792-0.451zm18.92-6.8267v-7.2853l5.9748 2.9878c3.2861 1.6433 5.9748 3.0173 5.9748 3.0534 0 0.1453-1.5406 1.8672-2.3898 2.671-1.9225 1.8198-4.0669 3.3483-6.2726 4.4712-1.1436 0.58215-3.0023 1.3872-3.2028 1.3872-0.04645 0-0.08445-3.2784-0.08445-7.2853zm-31.268-3.6982c-0.68111-1.0929-1.1723-2.0002-1.1128-2.0557 0.02373-0.02213 1.3765-0.70644 3.0062-1.5207l2.9631-1.4805 7.563 0.05502-0.87459 0.4368c-0.48103 0.24024-3.1473 1.5712-5.925 2.9578l-5.0504 2.521zm43.112-3.6378-2.7778-1.4051 3.4967-0.0057 3.4967-0.0056-0.06999 0.28826c-0.1404 0.57827-1.0639 2.4885-1.2138 2.5106-0.08473 0.0125-1.404-0.60959-2.9318-1.3824zm-45.444-19.419c0.12312-0.50028 1.0303-2.4553 1.163-2.5062 0.06983-0.026798 1.3943 0.58846 2.9432 1.3672l2.8162 1.416-3.4967 0.0057-3.4967 0.0056 0.07094-0.28826zm34.866 0.24738c0.02402-0.02248 2.6937-1.3653 5.9327-2.984l5.889-2.9431 0.56949 0.91376c0.68109 1.0928 1.1723 2.0002 1.1128 2.0557-0.02373 0.02213-1.3754 0.70585-3.0036 1.5194l-2.9605 1.4791h-3.7918c-2.0855 0-3.7721-0.01839-3.7481-0.04087zm-1.2666-8.7115c0-4.0069 0.038-7.2853 0.08445-7.2853 0.20049 0 2.0592 0.80505 3.2028 1.3872 2.2057 1.1228 4.35 2.6513 6.2726 4.4712 0.84922 0.80385 2.3898 2.5257 2.3898 2.671 0 0.036073-2.6887 1.4101-5.9748 3.0534l-5.9748 2.9878zm-23.716 4.2392c-3.2141-1.6112-5.8438-2.959-5.8438-2.995 0-0.1453 1.5406-1.8672 2.3898-2.671 1.9225-1.8198 4.0669-3.3483 6.2726-4.4712 1.1436-0.58215 3.0023-1.3872 3.2028-1.3872 0.04645 0 0.08445 3.2547 0.08445 7.2327 0 5.7193-0.02742 7.2315-0.13103 7.2269-0.07206-0.00316-2.7607-1.324-5.9748-2.9352z" style="fill:#ce132a;stroke-width:.10482"/>
   <path d="m-69.944 43.385c-3.1055-1.3139-5.7879-3.0697-8.2496-5.3998-0.84921-0.80384-2.3898-2.5257-2.3898-2.671 0-0.07733 11.69-5.9359 11.844-5.9359 0.06936 0 0.10519 2.4639 0.10519 7.2327 0 5.7203-0.0274 7.2311-0.13103 7.2251-0.07206-0.0041-0.60272-0.20709-1.1792-0.451zm18.92-6.8267v-7.2853l5.9748 2.9878c3.2861 1.6433 5.9748 3.0173 5.9748 3.0534 0 0.1453-1.5406 1.8672-2.3898 2.671-1.9225 1.8198-4.0669 3.3483-6.2726 4.4712-1.1436 0.58215-3.0023 1.3872-3.2028 1.3872-0.04645 0-0.08445-3.2784-0.08445-7.2853zm0-35.22c0-4.0069 0.038-7.2853 0.08445-7.2853 0.20049 0 2.0592 0.80505 3.2028 1.3872 2.2057 1.1228 4.35 2.6513 6.2726 4.4712 0.84922 0.80385 2.3898 2.5257 2.3898 2.671 0 0.036073-2.6887 1.4101-5.9748 3.0534l-5.9748 2.9878zm-23.716 4.2392c-3.2141-1.6112-5.8438-2.959-5.8438-2.995 0-0.1453 1.5406-1.8672 2.3898-2.671 1.9225-1.8198 4.0669-3.3483 6.2726-4.4712 1.1436-0.58215 3.0023-1.3872 3.2028-1.3872 0.04645 0 0.08445 3.2547 0.08445 7.2327 0 5.7193-0.02742 7.2315-0.13103 7.2269-0.07206-0.00316-2.7607-1.324-5.9748-2.9352z" style="fill:#2a4891;stroke-width:.10482"/>
   <path d="m-69.524 43.528c-0.23061-0.10896-0.80142-0.36494-1.2685-0.56885-1.946-0.84962-4.1465-2.2295-5.9118-3.7072-1.0163-0.85075-2.9357-2.7729-3.5311-3.5363l-0.33062-0.42387 11.828-5.913v7.1801c0 8.067 0.07781 7.3772-0.78616 6.969zm18.606-6.969v-7.1801l11.828 5.913-0.33062 0.42387c-0.59546 0.76341-2.5148 2.6855-3.5311 3.5363-1.6912 1.4156-3.9537 2.8432-5.8176 3.6707-1.5141 0.6722-1.8683 0.81645-2.0043 0.81645-0.12147 0-0.14457-1.1473-0.14457-7.1801zm-23.768-31.007-5.8961-2.9556 0.71807-0.83845c2.425-2.8315 5.7704-5.3591 8.9776-6.783 1.5141-0.6722 1.8683-0.81645 2.0043-0.81645 0.12147 0 0.14457 1.1473 0.14457 7.1803 0 3.9491-0.01179 7.1777-0.02621 7.1745-0.01441-0.00316-2.6794-1.3358-5.9223-2.9613zm23.768-4.2133c0-6.0328 0.0231-7.1801 0.14457-7.1801 0.136 0 0.49014 0.14426 2.0043 0.81645 1.8638 0.82745 4.1264 2.255 5.8176 3.6707 1.0163 0.85075 2.9357 2.7729 3.5311 3.5363l0.33062 0.42387-11.828 5.913z" style="fill:#103184;stroke-width:.10482"/>
   <path d="m-69.629 43.462c-0.95992-0.41726-2.9948-1.4131-3.4067-1.6672-0.92049-0.56782-2.2824-1.4635-2.5681-1.6889-0.17296-0.13645-0.362-0.28276-0.4201-0.32513-1.3814-1.0074-4.6203-4.2958-4.4243-4.4918 0.03279-0.03279 2.681-1.3694 5.8849-2.9703l5.8253-2.9107v7.1657c0 5.6638-0.02746 7.1653-0.13103 7.1637-0.07206-0.0011-0.41404-0.12503-0.75995-0.2754zm18.711-6.8915v-7.1689l5.8241 2.9127c3.2033 1.602 5.8515 2.94 5.8849 2.9735 0.19707 0.19707-3.0367 3.4819-4.4232 4.493-0.0581 0.04237-0.24714 0.18868-0.4201 0.32513-0.28568 0.22539-1.6476 1.121-2.5681 1.6889-0.77247 0.47652-3.928 1.9446-4.1798 1.9446-0.0862 0-0.11792-1.9286-0.11792-7.1689zm-23.671-30.988c-3.1893-1.6018-5.8257-2.9394-5.8587-2.9724-0.19635-0.19635 3.0411-3.4837 4.424-4.4922 0.0581-0.04237 0.24714-0.18868 0.4201-0.32513 0.28568-0.22539 1.6476-1.121 2.5681-1.6889 0.77247-0.47652 3.928-1.9446 4.1798-1.9446 0.0862 0 0.11792 1.9316 0.11792 7.1803 0 3.9491-0.01179 7.1747-0.02621 7.1678-0.01441-0.00684-2.6356-1.323-5.8249-2.9249zm23.671-4.2545c0-5.2401 0.03172-7.1687 0.11792-7.1687 0.25176 0 3.4073 1.4681 4.1798 1.9446 0.92049 0.56782 2.2824 1.4635 2.5681 1.6889 0.17296 0.13645 0.362 0.28276 0.4201 0.32513 1.3959 1.018 4.62 4.2962 4.421 4.4952-0.03462 0.034621-2.6828 1.3726-5.8849 2.9733l-5.822 2.9104z" style="fill:#00237c;stroke-width:.10482"/>
  </g>
 </g>
</svg>
