<svg class="ionicon" width="40" height="40" version="1.1" viewBox="0 0 40 40" xmlns="http://www.w3.org/2000/svg">
 <title>Grid</title>
 <path d="m15.42 18.591h-11.98a3.1711 3.1711 0 0 1-3.1711-3.1711v-11.98a3.1711 3.1711 0 0 1 3.1711-3.1711h11.98a3.1711 3.1711 0 0 1 3.1711 3.1711v11.98a3.1711 3.1711 0 0 1-3.1711 3.1711zm21.141 0h-11.98a3.1711 3.1711 0 0 1-3.1711-3.1711v-11.98a3.1711 3.1711 0 0 1 3.1711-3.1711h11.98a3.1711 3.1711 0 0 1 3.1711 3.1711v11.98a3.1711 3.1711 0 0 1-3.1711 3.1711zm-21.141 21.141h-11.98a3.1711 3.1711 0 0 1-3.1711-3.1711v-11.98a3.1711 3.1711 0 0 1 3.1711-3.1711h11.98a3.1711 3.1711 0 0 1 3.1711 3.1711v11.98a3.1711 3.1711 0 0 1-3.1711 3.1711zm21.141 0h-11.98a3.1711 3.1711 0 0 1-3.1711-3.1711v-11.98a3.1711 3.1711 0 0 1 3.1711-3.1711h11.98a3.1711 3.1711 0 0 1 3.1711 3.1711v11.98a3.1711 3.1711 0 0 1-3.1711 3.1711z" style="stroke-width:.088086"/>
</svg>
