<svg width="478.44" height="73.315"  version="1.1" viewBox="0 0 126.59 19.398" xmlns="http://www.w3.org/2000/svg" >
 
 <g transform="scale(1)" aria-label="owlieDev.pl">
  <path d="m28.249 16.006h-1.958q-1.4799 0-2.345-0.86516-0.84239-0.86516-0.84239-2.3678v-5.1454q0-1.5026 0.84239-2.3678 0.86516-0.86516 2.345-0.86516h1.958q1.4799 0 2.345 0.86516t0.86516 2.3678v5.1454q0 1.5026-0.86516 2.3678-0.86516 0.86516-2.345 0.86516zm-1.8669-1.0245h1.7759q1.0473 0 1.5937-0.56919 0.56919-0.59195 0.56919-1.662v-5.0999q0-1.0701-0.56919-1.6393-0.54642-0.59195-1.5937-0.59195h-1.7759q-1.0473 0-1.5937 0.59195-0.54642 0.56919-0.54642 1.6393v5.0999q0 1.0701 0.54642 1.662 0.54642 0.56919 1.5937 0.56919z"/>
  <path d="m38.333 16.006h-0.9107q-0.22767 0-0.29598-0.27321l-3.1874-11.065q-0.0683-0.27321 0.18214-0.27321h0.72856q0.25044 0 0.29598 0.27321l2.6866 9.9038h0.11384l2.641-9.9038q0.04554-0.27321 0.31874-0.27321h0.66026q0.27321 0 0.31874 0.27321l2.5955 9.9038h0.11384l2.7093-9.9038q0.0683-0.27321 0.29598-0.27321h0.72856q0.27321 0 0.18214 0.27321l-3.1647 11.065q-0.0683 0.27321-0.31874 0.27321h-0.9107q-0.25044 0-0.31874-0.27321l-2.5272-9.6079h-0.11384l-2.5044 9.6079q-0.0683 0.27321-0.31874 0.27321z"/>
  <path d="m52.277 16.006h-0.66026q-0.22768 0-0.22768-0.27321v-15.459q0-0.27321 0.22768-0.27321h0.66026q0.25044 0 0.25044 0.27321v15.459q0 0.27321-0.25044 0.27321z"/>
  <path d="m56.734 2.4818v-2.1857q0-0.25044 0.22767-0.25044h0.68302q0.22767 0 0.22767 0.25044v2.1857q0 0.27321-0.22767 0.27321h-0.68302q-0.22767 0-0.22767-0.27321zm0 13.251v-11.065q0-0.27321 0.22767-0.27321h0.66026q0.25044 0 0.25044 0.27321v11.065q0 0.27321-0.22767 0.27321h-0.68302q-0.22767 0-0.22767-0.27321z"/>
  <path d="m69.683 16.006h-4.7584q-1.4799 0-2.345-0.86516-0.8424-0.86516-0.8424-2.3678v-5.1454q0-1.5026 0.8424-2.3678 0.86516-0.86516 2.345-0.86516h1.958q1.4799 0 2.345 0.86516t0.86516 2.3678v2.8915q0 0.27321-0.27321 0.27321h-6.7392q-0.20491 0-0.20491 0.20491v1.7531q0 1.0701 0.54642 1.662 0.54642 0.56919 1.5937 0.56919h4.6673q0.25044 0 0.25044 0.25044v0.52365q0 0.25044-0.25044 0.25044zm-6.6026-6.1244h5.6691q0.20491 0 0.20491-0.20491v-2.0263q0-1.0701-0.54642-1.6393-0.54642-0.59195-1.5937-0.59195h-1.7986q-1.0473 0-1.5937 0.59195-0.54642 0.56919-0.54642 1.6393v2.0263q0 0.20491 0.20491 0.20491z"/>
  <path d="m75.307 14.981h4.3713q1.0473 0 1.5937-0.56919 0.56919-0.59195 0.56919-1.6848v-8.0824q0-1.0928-0.56919-1.662-0.54642-0.59195-1.5937-0.59195h-4.3713q-0.22767 0-0.22767 0.20491v12.181q0 0.20491 0.22767 0.20491zm-1.366 0.75132v-14.093q0-0.27321 0.22767-0.27321h5.6236q1.4799 0 2.3223 0.86516 0.86516 0.86516 0.86516 2.3678v8.1735q0 1.5026-0.86516 2.3678-0.8424 0.86516-2.3223 0.86516h-5.6236q-0.22767 0-0.22767-0.27321z"/>
  <path d="m94.647 16.006h-4.7584q-1.4799 0-2.345-0.86516-0.84239-0.86516-0.84239-2.3678v-5.1454q0-1.5026 0.84239-2.3678 0.86516-0.86516 2.345-0.86516h1.958q1.4799 0 2.345 0.86516t0.86516 2.3678v2.8915q0 0.27321-0.27321 0.27321h-6.7392q-0.20491 0-0.20491 0.20491v1.7531q0 1.0701 0.54642 1.662 0.54642 0.56919 1.5937 0.56919h4.6673q0.25044 0 0.25044 0.25044v0.52365q0 0.25044-0.25044 0.25044zm-6.6026-6.1244h5.6691q0.20491 0 0.20491-0.20491v-2.0263q0-1.0701-0.54642-1.6393-0.54642-0.59195-1.5937-0.59195h-1.7986q-1.0473 0-1.5937 0.59195-0.54642 0.56919-0.54642 1.6393v2.0263q0 0.20491 0.20491 0.20491z"/>
  <path d="m97.607 4.3942h0.70579q0.22767 0 0.29598 0.27321l3.0508 10.063h0.0911l3.0281-10.063q0.0911-0.27321 0.29598-0.27321h0.72856q0.25044 0 0.15937 0.27321l-3.4379 11.065q-0.0683 0.27321-0.31875 0.27321h-1.0018q-0.25044 0-0.34151-0.27321l-3.4379-11.065q-0.0683-0.27321 0.18214-0.27321z"/>
  <path d="m109.78 13.023v2.7093q0 0.27321-0.22767 0.27321h-0.79686q-0.25045 0-0.25045-0.27321v-2.7093q0-0.25044 0.25045-0.25044h0.79686q0.22767 0 0.22767 0.25044z"/>
  <path d="m114.48 19.398h-0.66026q-0.22767 0-0.22767-0.25044v-14.48q0-0.27321 0.22767-0.27321h0.66026q0.25044 0 0.25044 0.27321v0.9107h0.0911q0.63749-1.1839 2.3678-1.1839h1.5482q1.4571 0 2.2995 0.86516t0.8424 2.3678v5.1454q0 1.5026-0.8424 2.3678-0.84239 0.86516-2.2995 0.86516h-1.5482q-1.7303 0-2.3678-1.1839h-0.0911v4.3258q0 0.25044-0.25044 0.25044zm2.5955-4.4169h1.5026q1.0473 0 1.5937-0.56919 0.56919-0.59195 0.56919-1.6848v-5.0544q0-1.0928-0.56919-1.662-0.54642-0.59195-1.5937-0.59195h-1.5026q-1.0928 0-1.7303 0.59195-0.61472 0.56919-0.61472 1.6393v5.0999q0 1.0701 0.61472 1.662 0.63749 0.56919 1.7303 0.56919z"/>
  <path d="m126.61 16.006h-0.66026q-0.22767 0-0.22767-0.27321v-15.459q0-0.27321 0.22767-0.27321h0.66026q0.25044 0 0.25044 0.27321v15.459q0 0.27321-0.25044 0.27321z"/>
 </g>
 <path d="m0.55527 0.55527h18.287v18.287h-18.287z" style="fill:none;stroke-width:1.1105;stroke:#666"/>
 <g transform="matrix(0 .98327 -1.017 0 0 0)" aria-label="};">
  <path d="m0.58553-1.4067q2.1462-0.7154 2.1815-3.2944v-1.9784q0-2.2345 1.7046-2.8351-1.7046-0.60059-1.7046-2.8175v-1.8812q0-2.791-2.155-3.4622l0.22964-0.69774q1.5103 0.45044 2.2434 1.4661 0.7419 1.0069 0.7419 2.6496v1.9696q0 2.3052 2.0402 2.3052v0.91854q-2.0402 0-2.0402 2.3229v1.9519q0 1.6516-0.75073 2.6496t-2.2345 1.4396z"/>
  <path d="m7.5188-13.056q0-0.30912 0.19431-0.5211 0.20314-0.2208 0.55642-0.2208 0.35329 0 0.55642 0.2208 0.20314 0.21197 0.20314 0.5211t-0.20314 0.51226q-0.20314 0.19431-0.55642 0.19431-0.35329 0-0.55642-0.19431-0.19431-0.20314-0.19431-0.51226zm0.11482 11.19-0.62708-0.45927q0.80372-1.0775 0.83022-2.2345v-1.369h1.0334v1.104q0 1.8371-1.2365 2.9588z"/>
 </g>
 <g transform="matrix(0 .98327 -1.017 0 0 0)" aria-label="&gt;">
  <path d="m17.815-9.5455-6.2796-2.6761v-1.0864l7.4632 3.3385v0.85672l-7.4632 3.3474v-1.0952z"/>
 </g>
</svg>
