<svg class="ionicon" version="1.1" viewBox="0 0 512 512" xmlns="http://www.w3.org/2000/svg">
 <title>Logo Css3</title>
 <path d="m234.98 496.5c-74.196-37.594-138.98-100.02-172.36-166.1-19.208-38.015-27.841-71.014-33.708-128.84-4.8504-47.807 2.7846-109.71 16.958-137.49 11.723-22.978 55.787-42.573 125.08-55.624 28.006-5.2745 145.62-4.5009 176.31 1.1596 48.084 8.8699 92.427 25.758 110.01 41.895 9.2819 8.5195 13.847 18.43 19.791 42.968 14.741 60.851 7.0398 158.06-17.119 216.07-23.062 55.375-71.698 113.19-130.24 154.81-16.261 11.563-69.216 41.805-73.091 41.742-0.41288-5e-3 -10.147-4.773-21.63-10.592zm45.773-45.537c62.871-37.108 118.79-97.453 142.76-154.04 24.087-56.893 30.122-151.45 13.077-204.85-4.898-15.341-13.282-20.774-51.128-33.142-39.732-12.983-83.341-17.679-146.3-15.749-68.144 2.0881-111.16 10.706-144.77 29.005-12.302 6.6978-14.499 9.3244-18.9 22.598-6.5814 19.847-11.109 68.533-8.9594 96.338 8.0633 104.29 47.892 174.94 135.6 240.54 17.816 13.325 48.858 30.741 54.964 30.838 2.2077 0.0348 12.856-5.1559 23.663-11.535zm-26.352-29.466c-0.14003-22.015-4.2291-30.774-22.779-48.797-41.513-40.332-60.732-87.852-56.969-140.87 3.612-50.886 23.744-98.315 56.676-133.52 9.5432-10.203 19.129-20.989 21.302-23.968 3.7658-5.163 4.2189-4.9019 9.6617 5.568 3.1409 6.0417 10.612 15.996 16.603 22.121 14.721 15.05 32.411 41.552 42.073 63.029 11.854 26.351 17.024 50.872 16.977 80.522-0.0861 54.957-16.413 91.92-59.119 133.84l-13.223 12.981v19.764c0 17.908-0.52286 19.764-5.5678 19.764-4.5663 0-5.5798-1.8781-5.6343-10.44z" style="stroke-width:2.7839"/>
</svg>
